# xmcd
#
# Track frame offsets: 
#        150
#        19128
#        31523
#        45303
#        68256
#        90351
#        106782
#        128153
#        147306
#
# Disc length: 2190 seconds
#
# Revision: 0
# Processed by: cddbd v1.5.2PL0 Copyright (c) Steve Scherf et al.
# Submitted via: ExactAudioCopy v1.0b4
#
DISCID=5d088c09
DTITLE=B.B. King - Blues 'N' Jazz (LP)
DYEAR=1983
DGENRE=Blues
TTITLE0=Inflation Blues
TTITLE1=Broken Heart
TTITLE2=Broken Heart
TTITLE3=Heed My Warning
TTITLE4=Teardrops From My Eyes
TTITLE5=Rainbow Riot
TTITLE6=Darling You Know I Love You
TTITLE7=Make Love To Me
TTITLE8=I Can' t Let You Go
EXTD=
EXTT0=
EXTT1=
EXTT2=
EXTT3=
EXTT4=
EXTT5=
EXTT6=
EXTT7=
EXTT8=
PLAYORDER=
